<?xml version="1.0" encoding="UTF-8" standalone="no"?><!DOCTYPE svg PUBLIC "-//W3C//DTD SVG 1.1//EN" "http://www.w3.org/Graphics/SVG/1.1/DTD/svg11.dtd"><svg width="100%" height="100%" viewBox="0 0 649 157" version="1.1" xmlns="http://www.w3.org/2000/svg" xmlns:xlink="http://www.w3.org/1999/xlink" xml:space="preserve" xmlns:serif="http://www.serif.com/" style="fill-rule:evenodd;clip-rule:evenodd;stroke-linejoin:round;stroke-miterlimit:10;"><path d="M6.484,66.146l614.41,0l0,-6.693l21.622,13.386l-21.622,13.385l0,-6.693l-614.41,0l0,-13.385Z" style="fill:url(#_Linear1);"/><path d="M6.484,66.146l614.41,0l0,-6.693l21.622,13.386l-21.622,13.385l0,-6.693l-614.41,0l0,-13.385Z" style="fill:none;stroke:#000;stroke-width:1px;"/><rect x="574.579" y="86.224" width="67.937" height="43.213" style="fill-opacity:0;"/><path d="M595.064,114.751l-1.687,0l0,-11.235l-3.406,1.25l0,-1.531l4.828,-1.812l0.265,0l0,13.328Zm13.258,-5.657c0,1.969 -0.339,3.438 -1.016,4.407c-0.677,0.958 -1.729,1.437 -3.156,1.437c-1.417,0 -2.469,-0.469 -3.157,-1.406c-0.677,-0.938 -1.026,-2.339 -1.046,-4.203l0,-2.25c0,-1.959 0.333,-3.412 1,-4.36c0.677,-0.947 1.739,-1.421 3.187,-1.421c1.427,0 2.474,0.458 3.141,1.375c0.677,0.916 1.026,2.328 1.047,4.234l0,2.187Zm-1.688,-2.312c0,-1.427 -0.203,-2.464 -0.609,-3.109c-0.396,-0.657 -1.026,-0.985 -1.891,-0.985c-0.865,0 -1.495,0.328 -1.891,0.985c-0.395,0.645 -0.599,1.64 -0.609,2.984l0,2.703c0,1.427 0.208,2.484 0.625,3.172c0.417,0.687 1.047,1.031 1.891,1.031c0.833,0 1.448,-0.323 1.843,-0.969c0.407,-0.645 0.62,-1.661 0.641,-3.046l0,-2.766Zm12.163,2.312c0,1.969 -0.338,3.438 -1.015,4.407c-0.677,0.958 -1.729,1.437 -3.156,1.437c-1.417,0 -2.469,-0.469 -3.157,-1.406c-0.677,-0.938 -1.026,-2.339 -1.047,-4.203l0,-2.25c0,-1.959 0.334,-3.412 1,-4.36c0.678,-0.947 1.74,-1.421 3.188,-1.421c1.427,0 2.474,0.458 3.141,1.375c0.677,0.916 1.026,2.328 1.046,4.234l0,2.187Zm-1.687,-2.312c0,-1.427 -0.203,-2.464 -0.609,-3.109c-0.396,-0.657 -1.026,-0.985 -1.891,-0.985c-0.865,0 -1.495,0.328 -1.891,0.985c-0.396,0.645 -0.599,1.64 -0.609,2.984l0,2.703c0,1.427 0.208,2.484 0.625,3.172c0.417,0.687 1.047,1.031 1.891,1.031c0.833,0 1.447,-0.323 1.843,-0.969c0.407,-0.645 0.62,-1.661 0.641,-3.046l0,-2.766Zm3.695,-2.75c0,-0.792 0.255,-1.443 0.765,-1.953c0.511,-0.521 1.162,-0.781 1.953,-0.781c0.802,0 1.453,0.26 1.953,0.781c0.511,0.521 0.766,1.193 0.766,2.015l0,0.641c0,0.802 -0.255,1.458 -0.766,1.969c-0.51,0.51 -1.156,0.765 -1.937,0.765c-0.792,0 -1.448,-0.255 -1.969,-0.765c-0.51,-0.511 -0.765,-1.188 -0.765,-2.031l0,-0.641Zm1.265,0.703c0,0.479 0.13,0.875 0.391,1.188c0.271,0.302 0.63,0.453 1.078,0.453c0.437,0 0.786,-0.151 1.047,-0.453c0.26,-0.303 0.39,-0.709 0.39,-1.219l0,-0.672c0,-0.469 -0.13,-0.859 -0.39,-1.172c-0.261,-0.312 -0.615,-0.469 -1.063,-0.469c-0.448,0 -0.802,0.157 -1.062,0.469c-0.261,0.313 -0.391,0.719 -0.391,1.219l0,0.656Zm5.203,6.766c0,-0.802 0.25,-1.459 0.75,-1.969c0.511,-0.51 1.162,-0.766 1.953,-0.766c0.803,0 1.459,0.256 1.969,0.766c0.511,0.51 0.766,1.187 0.766,2.031l0,0.641c0,0.802 -0.255,1.458 -0.766,1.969c-0.51,0.51 -1.161,0.765 -1.953,0.765c-0.781,0 -1.432,-0.25 -1.953,-0.75c-0.51,-0.51 -0.766,-1.187 -0.766,-2.031l0,-0.656Zm1.25,0.703c0,0.479 0.131,0.875 0.391,1.187c0.271,0.302 0.63,0.453 1.078,0.453c0.438,0 0.787,-0.145 1.047,-0.437c0.271,-0.302 0.406,-0.714 0.406,-1.234l0,-0.672c0,-0.479 -0.135,-0.87 -0.406,-1.172c-0.26,-0.302 -0.615,-0.453 -1.063,-0.453c-0.427,0 -0.776,0.151 -1.046,0.453c-0.271,0.291 -0.407,0.693 -0.407,1.203l0,0.672Zm-4.593,1.547l-0.969,-0.61l6.484,-10.359l0.953,0.594l-6.468,10.375Z" style="fill-rule:nonzero;"/><rect x="6.484" y="86.224" width="67.937" height="43.213" style="fill-opacity:0;"/><path d="M24.906,109.094c0,1.969 -0.338,3.438 -1.016,4.407c-0.677,0.958 -1.729,1.437 -3.156,1.437c-1.416,0 -2.469,-0.469 -3.156,-1.406c-0.677,-0.938 -1.026,-2.339 -1.047,-4.203l0,-2.25c0,-1.959 0.333,-3.412 1,-4.36c0.677,-0.947 1.74,-1.421 3.188,-1.421c1.427,0 2.474,0.458 3.14,1.375c0.677,0.916 1.026,2.328 1.047,4.234l0,2.187Zm-1.687,-2.312c0,-1.427 -0.204,-2.464 -0.61,-3.109c-0.396,-0.657 -1.026,-0.985 -1.89,-0.985c-0.865,0 -1.495,0.328 -1.891,0.985c-0.396,0.645 -0.599,1.64 -0.609,2.984l0,2.703c0,1.427 0.208,2.484 0.625,3.172c0.416,0.687 1.046,1.031 1.89,1.031c0.834,0 1.448,-0.323 1.844,-0.969c0.406,-0.645 0.62,-1.661 0.641,-3.046l0,-2.766Zm3.694,-2.75c0,-0.792 0.256,-1.443 0.766,-1.953c0.51,-0.521 1.161,-0.781 1.953,-0.781c0.802,0 1.453,0.26 1.953,0.781c0.511,0.521 0.766,1.193 0.766,2.015l0,0.641c0,0.802 -0.255,1.458 -0.766,1.969c-0.51,0.51 -1.156,0.765 -1.937,0.765c-0.792,0 -1.448,-0.255 -1.969,-0.765c-0.51,-0.511 -0.766,-1.188 -0.766,-2.031l0,-0.641Zm1.266,0.703c0,0.479 0.13,0.875 0.391,1.188c0.27,0.302 0.63,0.453 1.078,0.453c0.437,0 0.786,-0.151 1.047,-0.453c0.26,-0.303 0.39,-0.709 0.39,-1.219l0,-0.672c0,-0.469 -0.13,-0.859 -0.39,-1.172c-0.261,-0.312 -0.615,-0.469 -1.063,-0.469c-0.448,0 -0.802,0.157 -1.062,0.469c-0.261,0.313 -0.391,0.719 -0.391,1.219l0,0.656Zm5.203,6.766c0,-0.802 0.25,-1.459 0.75,-1.969c0.51,-0.51 1.162,-0.766 1.953,-0.766c0.802,0 1.459,0.256 1.969,0.766c0.51,0.51 0.766,1.187 0.766,2.031l0,0.641c0,0.802 -0.256,1.458 -0.766,1.969c-0.51,0.51 -1.162,0.765 -1.953,0.765c-0.781,0 -1.432,-0.25 -1.953,-0.75c-0.511,-0.51 -0.766,-1.187 -0.766,-2.031l0,-0.656Zm1.25,0.703c0,0.479 0.13,0.875 0.391,1.187c0.271,0.302 0.63,0.453 1.078,0.453c0.437,0 0.786,-0.145 1.047,-0.437c0.271,-0.302 0.406,-0.714 0.406,-1.234l0,-0.672c0,-0.479 -0.135,-0.87 -0.406,-1.172c-0.261,-0.302 -0.615,-0.453 -1.063,-0.453c-0.427,0 -0.776,0.151 -1.047,0.453c-0.271,0.291 -0.406,0.693 -0.406,1.203l0,0.672Zm-4.594,1.547l-0.968,-0.61l6.484,-10.359l0.953,0.594l-6.469,10.375Z" style="fill-rule:nonzero;"/><rect x="370.815" y="118.382" width="191.402" height="43.213" style="fill-opacity:0;"/><path d="M396.722,133.643l4.343,10.828l4.328,-10.828l2.266,0l0,13.265l-1.75,0l0,-5.172l0.172,-5.562l-4.359,10.734l-1.344,0l-4.344,-10.719l0.172,5.547l0,5.172l-1.734,0l0,-13.265l2.25,0Zm19.85,13.265c-0.094,-0.198 -0.172,-0.541 -0.234,-1.031c-0.782,0.812 -1.719,1.219 -2.813,1.219c-0.969,0 -1.766,-0.276 -2.391,-0.828c-0.614,-0.553 -0.921,-1.25 -0.921,-2.094c0,-1.021 0.385,-1.813 1.156,-2.375c0.781,-0.573 1.88,-0.86 3.297,-0.86l1.64,0l0,-0.781c0,-0.594 -0.177,-1.062 -0.531,-1.406c-0.344,-0.354 -0.859,-0.531 -1.547,-0.531c-0.604,0 -1.109,0.156 -1.515,0.468c-0.407,0.303 -0.61,0.667 -0.61,1.094l-1.703,0c0,-0.489 0.172,-0.963 0.516,-1.422c0.354,-0.458 0.828,-0.817 1.422,-1.078c0.604,-0.271 1.265,-0.406 1.984,-0.406c1.135,0 2.026,0.286 2.672,0.859c0.646,0.563 0.979,1.339 1,2.328l0,4.532c0,0.906 0.114,1.63 0.344,2.172l0,0.14l-1.766,0Zm-2.797,-1.281c0.531,0 1.031,-0.135 1.5,-0.406c0.479,-0.282 0.823,-0.641 1.031,-1.078l0,-2.016l-1.312,0c-2.073,0 -3.11,0.604 -3.11,1.812c0,0.532 0.177,0.948 0.532,1.25c0.354,0.292 0.807,0.438 1.359,0.438Zm12.601,-1.328c0,-0.459 -0.172,-0.813 -0.516,-1.063c-0.343,-0.25 -0.942,-0.463 -1.796,-0.64c-0.855,-0.188 -1.532,-0.407 -2.032,-0.657c-0.5,-0.26 -0.869,-0.567 -1.109,-0.921c-0.24,-0.355 -0.359,-0.776 -0.359,-1.266c0,-0.802 0.338,-1.479 1.015,-2.031c0.688,-0.563 1.563,-0.844 2.625,-0.844c1.115,0 2.021,0.286 2.719,0.859c0.698,0.573 1.047,1.313 1.047,2.219l-1.688,0c0,-0.469 -0.198,-0.87 -0.593,-1.203c-0.396,-0.333 -0.891,-0.5 -1.485,-0.5c-0.614,0 -1.094,0.135 -1.437,0.406c-0.344,0.261 -0.516,0.61 -0.516,1.047c0,0.406 0.162,0.714 0.484,0.922c0.323,0.208 0.902,0.406 1.735,0.594c0.844,0.187 1.526,0.411 2.047,0.672c0.521,0.26 0.906,0.572 1.156,0.937c0.26,0.365 0.391,0.813 0.391,1.344c0,0.885 -0.355,1.594 -1.063,2.125c-0.698,0.531 -1.609,0.797 -2.734,0.797c-0.792,0 -1.495,-0.141 -2.11,-0.422c-0.604,-0.281 -1.078,-0.672 -1.422,-1.172c-0.343,-0.5 -0.515,-1.042 -0.515,-1.625l1.687,0c0.032,0.562 0.256,1.01 0.672,1.344c0.427,0.333 0.99,0.5 1.688,0.5c0.635,0 1.146,-0.131 1.531,-0.391c0.385,-0.26 0.578,-0.604 0.578,-1.031Zm6.167,-9.641l0,2.391l1.843,0l0,1.312l-1.843,0l0,6.11c0,0.396 0.078,0.692 0.234,0.89c0.167,0.198 0.448,0.297 0.844,0.297c0.198,0 0.468,-0.036 0.812,-0.109l0,1.359c-0.448,0.125 -0.88,0.188 -1.297,0.188c-0.75,0 -1.317,-0.229 -1.703,-0.688c-0.385,-0.458 -0.578,-1.104 -0.578,-1.937l0,-6.11l-1.797,0l0,-1.312l1.797,0l0,-2.391l1.688,0Zm7.891,12.438c-1.334,0 -2.422,-0.438 -3.266,-1.313c-0.833,-0.885 -1.25,-2.062 -1.25,-3.531l0,-0.313c0,-0.979 0.188,-1.849 0.563,-2.609c0.375,-0.771 0.895,-1.37 1.562,-1.797c0.677,-0.437 1.406,-0.656 2.188,-0.656c1.281,0 2.276,0.422 2.984,1.266c0.708,0.843 1.063,2.052 1.063,3.625l0,0.687l-6.672,0c0.02,0.979 0.302,1.771 0.843,2.375c0.552,0.594 1.245,0.891 2.079,0.891c0.593,0 1.098,-0.12 1.515,-0.36c0.417,-0.25 0.776,-0.573 1.078,-0.968l1.032,0.796c-0.823,1.271 -2.063,1.907 -3.719,1.907Zm-0.203,-8.844c-0.677,0 -1.25,0.25 -1.719,0.75c-0.458,0.49 -0.74,1.182 -0.844,2.078l4.938,0l0,-0.125c-0.052,-0.854 -0.287,-1.516 -0.703,-1.984c-0.407,-0.479 -0.964,-0.719 -1.672,-0.719Zm10.774,0.312c-0.26,-0.041 -0.542,-0.062 -0.844,-0.062c-1.104,0 -1.854,0.469 -2.25,1.406l0,7l-1.672,0l0,-9.859l1.641,0l0.016,1.14c0.552,-0.875 1.338,-1.312 2.359,-1.312c0.323,0 0.573,0.042 0.75,0.125l0,1.562Zm3.141,-1.515l0.047,1.234c0.75,-0.937 1.734,-1.406 2.953,-1.406c2.083,0 3.135,1.172 3.156,3.516l0,6.515l-1.687,0l0,-6.515c-0.011,-0.719 -0.177,-1.245 -0.5,-1.579c-0.313,-0.343 -0.807,-0.515 -1.485,-0.515c-0.541,0 -1.02,0.146 -1.437,0.437c-0.406,0.292 -0.729,0.677 -0.969,1.157l0,7.015l-1.672,0l0,-9.859l1.594,0Zm8.247,4.844c0,-0.969 0.187,-1.839 0.562,-2.61c0.386,-0.771 0.917,-1.364 1.594,-1.781c0.677,-0.417 1.448,-0.625 2.313,-0.625c1.343,0 2.427,0.463 3.25,1.391c0.833,0.927 1.25,2.161 1.25,3.703l0,0.125c0,0.958 -0.183,1.817 -0.547,2.578c-0.365,0.76 -0.891,1.354 -1.578,1.781c-0.677,0.427 -1.464,0.641 -2.36,0.641c-1.333,0 -2.416,-0.464 -3.25,-1.391c-0.823,-0.937 -1.234,-2.172 -1.234,-3.703l0,-0.109Zm1.687,0.203c0,1.093 0.256,1.974 0.766,2.64c0.51,0.657 1.188,0.985 2.031,0.985c0.865,0 1.547,-0.334 2.047,-1c0.5,-0.677 0.75,-1.62 0.75,-2.828c0,-1.084 -0.255,-1.959 -0.765,-2.625c-0.511,-0.678 -1.193,-1.016 -2.047,-1.016c-0.834,0 -1.506,0.333 -2.016,1c-0.51,0.656 -0.766,1.604 -0.766,2.844Zm8.984,-0.203c0,-1.511 0.359,-2.724 1.078,-3.641c0.719,-0.917 1.656,-1.375 2.813,-1.375c1.156,0 2.073,0.391 2.75,1.172l0,-5.141l1.687,0l0,14l-1.547,0l-0.093,-1.062c-0.667,0.833 -1.605,1.25 -2.813,1.25c-1.135,0 -2.068,-0.469 -2.797,-1.407c-0.719,-0.937 -1.078,-2.156 -1.078,-3.656l0,-0.14Zm1.688,0.203c0,1.114 0.229,1.989 0.687,2.625c0.469,0.625 1.109,0.937 1.922,0.937c1.073,0 1.854,-0.479 2.344,-1.437l0,-4.532c-0.511,-0.927 -1.287,-1.39 -2.328,-1.39c-0.823,0 -1.469,0.318 -1.938,0.953c-0.458,0.635 -0.687,1.583 -0.687,2.844Zm13.334,5c-1.334,0 -2.422,-0.438 -3.266,-1.313c-0.833,-0.885 -1.25,-2.062 -1.25,-3.531l0,-0.313c0,-0.979 0.187,-1.849 0.562,-2.609c0.375,-0.771 0.896,-1.37 1.563,-1.797c0.677,-0.437 1.406,-0.656 2.187,-0.656c1.282,0 2.276,0.422 2.985,1.266c0.708,0.843 1.062,2.052 1.062,3.625l0,0.687l-6.672,0c0.021,0.979 0.303,1.771 0.844,2.375c0.552,0.594 1.245,0.891 2.078,0.891c0.594,0 1.099,-0.12 1.516,-0.36c0.417,-0.25 0.776,-0.573 1.078,-0.968l1.031,0.796c-0.823,1.271 -2.062,1.907 -3.718,1.907Zm-0.204,-8.844c-0.677,0 -1.25,0.25 -1.718,0.75c-0.459,0.49 -0.74,1.182 -0.844,2.078l4.937,0l0,-0.125c-0.052,-0.854 -0.286,-1.516 -0.703,-1.984c-0.406,-0.479 -0.963,-0.719 -1.672,-0.719Zm10.181,2.75c-1.5,-0.438 -2.594,-0.969 -3.281,-1.594c-0.688,-0.625 -1.031,-1.401 -1.031,-2.328c0,-1.042 0.416,-1.906 1.25,-2.594c0.843,-0.687 1.932,-1.031 3.265,-1.031c0.906,0 1.719,0.177 2.438,0.531c0.718,0.354 1.271,0.844 1.656,1.469c0.396,0.615 0.594,1.292 0.594,2.031l-1.766,0c0,-0.802 -0.255,-1.432 -0.766,-1.89c-0.51,-0.459 -1.229,-0.688 -2.156,-0.688c-0.864,0 -1.536,0.188 -2.015,0.563c-0.48,0.375 -0.719,0.901 -0.719,1.578c0,0.541 0.229,1 0.687,1.375c0.459,0.375 1.235,0.719 2.328,1.031c1.105,0.302 1.969,0.641 2.594,1.016c0.625,0.375 1.084,0.812 1.375,1.312c0.302,0.5 0.453,1.084 0.453,1.75c0,1.073 -0.416,1.938 -1.25,2.594c-0.833,0.646 -1.953,0.969 -3.359,0.969c-0.917,0 -1.771,-0.172 -2.563,-0.516c-0.781,-0.354 -1.385,-0.833 -1.812,-1.437c-0.427,-0.615 -0.641,-1.308 -0.641,-2.079l1.75,0c0,0.803 0.297,1.438 0.891,1.907c0.594,0.458 1.385,0.687 2.375,0.687c0.917,0 1.62,-0.187 2.109,-0.562c0.5,-0.375 0.75,-0.886 0.75,-1.532c0,-0.656 -0.229,-1.161 -0.687,-1.515c-0.458,-0.354 -1.281,-0.703 -2.469,-1.047Zm10.849,4.719c0.594,0 1.115,-0.183 1.563,-0.547c0.458,-0.365 0.708,-0.823 0.75,-1.375l1.594,0c-0.032,0.562 -0.224,1.099 -0.578,1.609c-0.355,0.511 -0.834,0.922 -1.438,1.235c-0.594,0.302 -1.224,0.453 -1.891,0.453c-1.343,0 -2.411,-0.448 -3.203,-1.344c-0.791,-0.896 -1.187,-2.125 -1.187,-3.688l0,-0.281c0,-0.958 0.172,-1.807 0.515,-2.547c0.355,-0.75 0.86,-1.328 1.516,-1.734c0.667,-0.417 1.448,-0.625 2.344,-0.625c1.104,0 2.021,0.333 2.75,1c0.739,0.656 1.13,1.51 1.172,2.562l-1.594,0c-0.042,-0.635 -0.281,-1.156 -0.719,-1.562c-0.437,-0.417 -0.974,-0.625 -1.609,-0.625c-0.854,0 -1.521,0.307 -2,0.922c-0.469,0.614 -0.703,1.505 -0.703,2.672l0,0.328c0,1.135 0.234,2.01 0.703,2.625c0.469,0.614 1.14,0.922 2.015,0.922Zm5.36,-3.828c0,-0.969 0.187,-1.839 0.562,-2.61c0.385,-0.771 0.917,-1.364 1.594,-1.781c0.677,-0.417 1.448,-0.625 2.312,-0.625c1.344,0 2.427,0.463 3.25,1.391c0.834,0.927 1.25,2.161 1.25,3.703l0,0.125c0,0.958 -0.182,1.817 -0.547,2.578c-0.364,0.76 -0.89,1.354 -1.578,1.781c-0.677,0.427 -1.463,0.641 -2.359,0.641c-1.333,0 -2.417,-0.464 -3.25,-1.391c-0.823,-0.937 -1.234,-2.172 -1.234,-3.703l0,-0.109Zm1.687,0.203c0,1.093 0.255,1.974 0.766,2.64c0.51,0.657 1.187,0.985 2.031,0.985c0.864,0 1.547,-0.334 2.047,-1c0.5,-0.677 0.75,-1.62 0.75,-2.828c0,-1.084 -0.255,-1.959 -0.766,-2.625c-0.51,-0.678 -1.193,-1.016 -2.047,-1.016c-0.833,0 -1.505,0.333 -2.015,1c-0.511,0.656 -0.766,1.604 -0.766,2.844Zm14.171,-3.532c-0.26,-0.041 -0.541,-0.062 -0.844,-0.062c-1.104,0 -1.854,0.469 -2.25,1.406l0,7l-1.671,0l0,-9.859l1.64,0l0.016,1.14c0.552,-0.875 1.338,-1.312 2.359,-1.312c0.323,0 0.573,0.042 0.75,0.125l0,1.562Zm5.452,8.532c-1.333,0 -2.421,-0.438 -3.265,-1.313c-0.834,-0.885 -1.25,-2.062 -1.25,-3.531l0,-0.313c0,-0.979 0.187,-1.849 0.562,-2.609c0.375,-0.771 0.896,-1.37 1.563,-1.797c0.677,-0.437 1.406,-0.656 2.187,-0.656c1.282,0 2.276,0.422 2.985,1.266c0.708,0.843 1.062,2.052 1.062,3.625l0,0.687l-6.672,0c0.021,0.979 0.302,1.771 0.844,2.375c0.552,0.594 1.245,0.891 2.078,0.891c0.594,0 1.099,-0.12 1.516,-0.36c0.416,-0.25 0.776,-0.573 1.078,-0.968l1.031,0.796c-0.823,1.271 -2.062,1.907 -3.719,1.907Zm-0.203,-8.844c-0.677,0 -1.25,0.25 -1.718,0.75c-0.459,0.49 -0.74,1.182 -0.844,2.078l4.937,0l0,-0.125c-0.052,-0.854 -0.286,-1.516 -0.703,-1.984c-0.406,-0.479 -0.963,-0.719 -1.672,-0.719Z" style="fill-rule:nonzero;"/><rect x="165.684" y="118.382" width="191.402" height="43.213" style="fill-opacity:0;"/><path d="M203.947,141.721l0,5.187l-1.735,0l0,-13.265l4.891,0c1.448,0 2.583,0.369 3.406,1.109c0.823,0.74 1.234,1.724 1.234,2.953c0,1.281 -0.406,2.271 -1.218,2.969c-0.802,0.698 -1.953,1.047 -3.453,1.047l-3.125,0Zm0,-1.438l3.156,0c0.927,0 1.64,-0.219 2.14,-0.656c0.5,-0.438 0.75,-1.073 0.75,-1.906c0,-0.792 -0.25,-1.422 -0.75,-1.891c-0.5,-0.479 -1.182,-0.729 -2.046,-0.75l-3.25,0l0,5.203Zm14.535,-1.719c-0.261,-0.041 -0.542,-0.062 -0.844,-0.062c-1.104,0 -1.854,0.469 -2.25,1.406l0,7l-1.672,0l0,-9.859l1.641,0l0.015,1.14c0.552,-0.875 1.339,-1.312 2.36,-1.312c0.323,0 0.573,0.042 0.75,0.125l0,1.562Zm0.911,3.329c0,-0.969 0.188,-1.839 0.563,-2.61c0.385,-0.771 0.917,-1.364 1.594,-1.781c0.677,-0.417 1.448,-0.625 2.312,-0.625c1.344,0 2.427,0.463 3.25,1.391c0.834,0.927 1.25,2.161 1.25,3.703l0,0.125c0,0.958 -0.182,1.817 -0.547,2.578c-0.364,0.76 -0.89,1.354 -1.578,1.781c-0.677,0.427 -1.463,0.641 -2.359,0.641c-1.334,0 -2.417,-0.464 -3.25,-1.391c-0.823,-0.937 -1.235,-2.172 -1.235,-3.703l0,-0.109Zm1.688,0.203c0,1.093 0.255,1.974 0.766,2.64c0.51,0.657 1.187,0.985 2.031,0.985c0.864,0 1.547,-0.334 2.047,-1c0.5,-0.677 0.75,-1.62 0.75,-2.828c0,-1.084 -0.256,-1.959 -0.766,-2.625c-0.51,-0.678 -1.193,-1.016 -2.047,-1.016c-0.833,0 -1.505,0.333 -2.015,1c-0.511,0.656 -0.766,1.604 -0.766,2.844Zm17.718,0c0,1.5 -0.344,2.708 -1.031,3.625c-0.677,0.916 -1.604,1.375 -2.782,1.375c-1.197,0 -2.14,-0.381 -2.828,-1.141l0,4.75l-1.672,0l0,-13.656l1.532,0l0.078,1.094c0.687,-0.844 1.64,-1.266 2.859,-1.266c1.188,0 2.125,0.448 2.813,1.344c0.687,0.885 1.031,2.125 1.031,3.718l0,0.157Zm-1.672,-0.203c0,-1.105 -0.24,-1.98 -0.719,-2.625c-0.468,-0.646 -1.119,-0.969 -1.953,-0.969c-1.021,0 -1.786,0.453 -2.297,1.359l0,4.703c0.511,0.907 1.287,1.36 2.328,1.36c0.803,0 1.443,-0.318 1.922,-0.953c0.479,-0.646 0.719,-1.605 0.719,-2.875Zm3.373,0c0,-0.969 0.188,-1.839 0.563,-2.61c0.385,-0.771 0.916,-1.364 1.593,-1.781c0.677,-0.417 1.448,-0.625 2.313,-0.625c1.344,0 2.427,0.463 3.25,1.391c0.833,0.927 1.25,2.161 1.25,3.703l0,0.125c0,0.958 -0.182,1.817 -0.547,2.578c-0.365,0.76 -0.891,1.354 -1.578,1.781c-0.677,0.427 -1.464,0.641 -2.359,0.641c-1.334,0 -2.417,-0.464 -3.25,-1.391c-0.823,-0.937 -1.235,-2.172 -1.235,-3.703l0,-0.109Zm1.688,0.203c0,1.093 0.255,1.974 0.765,2.64c0.511,0.657 1.188,0.985 2.032,0.985c0.864,0 1.546,-0.334 2.046,-1c0.5,-0.677 0.75,-1.62 0.75,-2.828c0,-1.084 -0.255,-1.959 -0.765,-2.625c-0.511,-0.678 -1.193,-1.016 -2.047,-1.016c-0.833,0 -1.505,0.333 -2.016,1c-0.51,0.656 -0.765,1.604 -0.765,2.844Zm15.14,2.203c0,-0.459 -0.172,-0.813 -0.516,-1.063c-0.344,-0.25 -0.943,-0.463 -1.797,-0.64c-0.854,-0.188 -1.531,-0.407 -2.031,-0.657c-0.5,-0.26 -0.87,-0.567 -1.11,-0.921c-0.239,-0.355 -0.359,-0.776 -0.359,-1.266c0,-0.802 0.339,-1.479 1.016,-2.031c0.687,-0.563 1.562,-0.844 2.625,-0.844c1.114,0 2.021,0.286 2.718,0.859c0.698,0.573 1.047,1.313 1.047,2.219l-1.687,0c0,-0.469 -0.198,-0.87 -0.594,-1.203c-0.396,-0.333 -0.891,-0.5 -1.484,-0.5c-0.615,0 -1.094,0.135 -1.438,0.406c-0.344,0.261 -0.515,0.61 -0.515,1.047c0,0.406 0.161,0.714 0.484,0.922c0.323,0.208 0.901,0.406 1.734,0.594c0.844,0.187 1.526,0.411 2.047,0.672c0.521,0.26 0.906,0.572 1.156,0.937c0.261,0.365 0.391,0.813 0.391,1.344c0,0.885 -0.354,1.594 -1.062,2.125c-0.698,0.531 -1.61,0.797 -2.735,0.797c-0.791,0 -1.495,-0.141 -2.109,-0.422c-0.604,-0.281 -1.078,-0.672 -1.422,-1.172c-0.344,-0.5 -0.516,-1.042 -0.516,-1.625l1.688,0c0.031,0.562 0.255,1.01 0.672,1.344c0.427,0.333 0.989,0.5 1.687,0.5c0.636,0 1.146,-0.131 1.531,-0.391c0.386,-0.26 0.579,-0.604 0.579,-1.031Zm9.963,2.609c-0.094,-0.198 -0.172,-0.541 -0.234,-1.031c-0.782,0.812 -1.719,1.219 -2.813,1.219c-0.969,0 -1.766,-0.276 -2.391,-0.828c-0.614,-0.553 -0.921,-1.25 -0.921,-2.094c0,-1.021 0.385,-1.813 1.156,-2.375c0.781,-0.573 1.88,-0.86 3.297,-0.86l1.64,0l0,-0.781c0,-0.594 -0.177,-1.062 -0.531,-1.406c-0.344,-0.354 -0.859,-0.531 -1.547,-0.531c-0.604,0 -1.109,0.156 -1.515,0.468c-0.407,0.303 -0.61,0.667 -0.61,1.094l-1.703,0c0,-0.489 0.172,-0.963 0.516,-1.422c0.354,-0.458 0.828,-0.817 1.422,-1.078c0.604,-0.271 1.265,-0.406 1.984,-0.406c1.135,0 2.026,0.286 2.672,0.859c0.646,0.563 0.979,1.339 1,2.328l0,4.532c0,0.906 0.114,1.63 0.344,2.172l0,0.14l-1.766,0Zm-2.797,-1.281c0.531,0 1.031,-0.135 1.5,-0.406c0.479,-0.282 0.823,-0.641 1.031,-1.078l0,-2.016l-1.312,0c-2.073,0 -3.11,0.604 -3.11,1.812c0,0.532 0.178,0.948 0.532,1.25c0.354,0.292 0.807,0.438 1.359,0.438Zm8.695,1.281l-1.688,0l0,-14l1.688,0l0,14Zm6.871,-5.906c-1.5,-0.438 -2.594,-0.969 -3.281,-1.594c-0.688,-0.625 -1.031,-1.401 -1.031,-2.328c0,-1.042 0.416,-1.906 1.25,-2.594c0.843,-0.687 1.932,-1.031 3.265,-1.031c0.906,0 1.719,0.177 2.438,0.531c0.718,0.354 1.271,0.844 1.656,1.469c0.396,0.615 0.594,1.292 0.594,2.031l-1.766,0c0,-0.802 -0.255,-1.432 -0.766,-1.89c-0.51,-0.459 -1.229,-0.688 -2.156,-0.688c-0.864,0 -1.536,0.188 -2.015,0.563c-0.48,0.375 -0.719,0.901 -0.719,1.578c0,0.541 0.229,1 0.687,1.375c0.459,0.375 1.235,0.719 2.328,1.031c1.105,0.302 1.969,0.641 2.594,1.016c0.625,0.375 1.084,0.812 1.375,1.312c0.302,0.5 0.453,1.084 0.453,1.75c0,1.073 -0.416,1.938 -1.25,2.594c-0.833,0.646 -1.953,0.969 -3.359,0.969c-0.917,0 -1.771,-0.172 -2.563,-0.516c-0.781,-0.354 -1.385,-0.833 -1.812,-1.437c-0.427,-0.615 -0.641,-1.308 -0.641,-2.079l1.75,0c0,0.803 0.297,1.438 0.891,1.907c0.594,0.458 1.385,0.687 2.375,0.687c0.917,0 1.62,-0.187 2.109,-0.562c0.5,-0.375 0.75,-0.886 0.75,-1.532c0,-0.656 -0.229,-1.161 -0.687,-1.515c-0.459,-0.354 -1.281,-0.703 -2.469,-1.047Zm10.849,4.719c0.594,0 1.115,-0.183 1.563,-0.547c0.458,-0.365 0.708,-0.823 0.75,-1.375l1.594,0c-0.032,0.562 -0.224,1.099 -0.579,1.609c-0.354,0.511 -0.833,0.922 -1.437,1.235c-0.594,0.302 -1.224,0.453 -1.891,0.453c-1.343,0 -2.411,-0.448 -3.203,-1.344c-0.791,-0.896 -1.187,-2.125 -1.187,-3.688l0,-0.281c0,-0.958 0.172,-1.807 0.515,-2.547c0.355,-0.75 0.86,-1.328 1.516,-1.734c0.667,-0.417 1.448,-0.625 2.344,-0.625c1.104,0 2.021,0.333 2.75,1c0.739,0.656 1.13,1.51 1.172,2.562l-1.594,0c-0.042,-0.635 -0.281,-1.156 -0.719,-1.562c-0.437,-0.417 -0.974,-0.625 -1.609,-0.625c-0.854,0 -1.521,0.307 -2,0.922c-0.469,0.614 -0.703,1.505 -0.703,2.672l0,0.328c0,1.135 0.234,2.01 0.703,2.625c0.468,0.614 1.14,0.922 2.015,0.922Zm5.359,-3.828c0,-0.969 0.188,-1.839 0.563,-2.61c0.385,-0.771 0.917,-1.364 1.594,-1.781c0.677,-0.417 1.448,-0.625 2.312,-0.625c1.344,0 2.427,0.463 3.25,1.391c0.834,0.927 1.25,2.161 1.25,3.703l0,0.125c0,0.958 -0.182,1.817 -0.547,2.578c-0.364,0.76 -0.89,1.354 -1.578,1.781c-0.677,0.427 -1.463,0.641 -2.359,0.641c-1.333,0 -2.417,-0.464 -3.25,-1.391c-0.823,-0.937 -1.235,-2.172 -1.235,-3.703l0,-0.109Zm1.688,0.203c0,1.093 0.255,1.974 0.766,2.64c0.51,0.657 1.187,0.985 2.031,0.985c0.864,0 1.547,-0.334 2.047,-1c0.5,-0.677 0.75,-1.62 0.75,-2.828c0,-1.084 -0.255,-1.959 -0.766,-2.625c-0.51,-0.678 -1.193,-1.016 -2.047,-1.016c-0.833,0 -1.505,0.333 -2.015,1c-0.511,0.656 -0.766,1.604 -0.766,2.844Zm14.171,-3.532c-0.26,-0.041 -0.542,-0.062 -0.844,-0.062c-1.104,0 -1.854,0.469 -2.25,1.406l0,7l-1.671,0l0,-9.859l1.64,0l0.016,1.14c0.552,-0.875 1.338,-1.312 2.359,-1.312c0.323,0 0.573,0.042 0.75,0.125l0,1.562Zm5.452,8.532c-1.333,0 -2.422,-0.438 -3.265,-1.313c-0.834,-0.885 -1.25,-2.062 -1.25,-3.531l0,-0.313c0,-0.979 0.187,-1.849 0.562,-2.609c0.375,-0.771 0.896,-1.37 1.563,-1.797c0.677,-0.437 1.406,-0.656 2.187,-0.656c1.281,0 2.276,0.422 2.985,1.266c0.708,0.843 1.062,2.052 1.062,3.625l0,0.687l-6.672,0c0.021,0.979 0.302,1.771 0.844,2.375c0.552,0.594 1.245,0.891 2.078,0.891c0.594,0 1.099,-0.12 1.516,-0.36c0.416,-0.25 0.776,-0.573 1.078,-0.968l1.031,0.796c-0.823,1.271 -2.062,1.907 -3.719,1.907Zm-0.203,-8.844c-0.677,0 -1.25,0.25 -1.719,0.75c-0.458,0.49 -0.739,1.182 -0.843,2.078l4.937,0l0,-0.125c-0.052,-0.854 -0.286,-1.516 -0.703,-1.984c-0.406,-0.479 -0.963,-0.719 -1.672,-0.719Z" style="fill-rule:nonzero;"/><path d="M272.82,40.453l9.04,-9.04l0,4.52l164.189,0l0,-4.52l9.039,9.04l-9.039,9.039l0,-4.52l-164.189,0l0,4.52l-9.04,-9.039Z" style="fill:#fff;"/><path d="M272.82,40.453l9.04,-9.04l0,4.52l164.189,0l0,-4.52l9.039,9.04l-9.039,9.039l0,-4.52l-164.189,0l0,4.52l-9.04,-9.039Z" style="fill:none;stroke:#000;stroke-width:1px;"/><rect x="268.253" y="-4.594" width="191.402" height="43.213" style="fill-opacity:0;"/><path d="M296.465,10.666l4.343,10.828l4.328,-10.828l2.266,0l0,13.266l-1.75,0l0,-5.172l0.172,-5.563l-4.359,10.735l-1.344,0l-4.344,-10.719l0.172,5.547l0,5.172l-1.734,0l0,-13.266l2.25,0Zm19.85,13.266c-0.094,-0.198 -0.172,-0.542 -0.235,-1.031c-0.781,0.812 -1.718,1.218 -2.812,1.218c-0.969,0 -1.766,-0.276 -2.391,-0.828c-0.614,-0.552 -0.922,-1.25 -0.922,-2.094c0,-1.02 0.386,-1.812 1.157,-2.375c0.781,-0.572 1.88,-0.859 3.297,-0.859l1.64,0l0,-0.781c0,-0.594 -0.177,-1.063 -0.531,-1.406c-0.344,-0.355 -0.859,-0.532 -1.547,-0.532c-0.604,0 -1.109,0.157 -1.516,0.469c-0.406,0.302 -0.609,0.667 -0.609,1.094l-1.703,0c0,-0.49 0.172,-0.964 0.516,-1.422c0.354,-0.458 0.828,-0.818 1.421,-1.078c0.605,-0.271 1.266,-0.406 1.985,-0.406c1.135,0 2.026,0.286 2.672,0.859c0.646,0.562 0.979,1.338 1,2.328l0,4.531c0,0.907 0.114,1.631 0.343,2.172l0,0.141l-1.765,0Zm-2.797,-1.281c0.531,0 1.031,-0.136 1.5,-0.407c0.479,-0.281 0.823,-0.64 1.031,-1.078l0,-2.015l-1.312,0c-2.073,0 -3.11,0.604 -3.11,1.812c0,0.531 0.177,0.948 0.532,1.25c0.354,0.292 0.807,0.438 1.359,0.438Zm12.601,-1.329c0,-0.458 -0.172,-0.812 -0.516,-1.062c-0.343,-0.25 -0.942,-0.464 -1.796,-0.641c-0.855,-0.187 -1.532,-0.406 -2.032,-0.656c-0.5,-0.26 -0.869,-0.568 -1.109,-0.922c-0.24,-0.354 -0.359,-0.776 -0.359,-1.265c0,-0.803 0.338,-1.48 1.015,-2.032c0.688,-0.562 1.563,-0.843 2.625,-0.843c1.115,0 2.021,0.286 2.719,0.859c0.698,0.573 1.047,1.312 1.047,2.219l-1.688,0c0,-0.469 -0.198,-0.87 -0.593,-1.203c-0.396,-0.334 -0.891,-0.5 -1.485,-0.5c-0.614,0 -1.094,0.135 -1.437,0.406c-0.344,0.26 -0.516,0.609 -0.516,1.047c0,0.406 0.162,0.713 0.484,0.922c0.323,0.208 0.901,0.406 1.735,0.593c0.844,0.188 1.526,0.412 2.047,0.672c0.521,0.261 0.906,0.573 1.156,0.938c0.26,0.364 0.391,0.812 0.391,1.343c0,0.886 -0.355,1.594 -1.063,2.125c-0.698,0.532 -1.609,0.797 -2.734,0.797c-0.792,0 -1.495,-0.14 -2.11,-0.422c-0.604,-0.281 -1.078,-0.671 -1.422,-1.171c-0.343,-0.5 -0.515,-1.042 -0.515,-1.625l1.687,0c0.032,0.562 0.256,1.01 0.672,1.343c0.427,0.334 0.99,0.5 1.688,0.5c0.635,0 1.146,-0.13 1.531,-0.39c0.385,-0.261 0.578,-0.604 0.578,-1.032Zm6.167,-9.64l0,2.39l1.843,0l0,1.313l-1.843,0l0,6.109c0,0.396 0.078,0.693 0.234,0.891c0.167,0.198 0.448,0.297 0.844,0.297c0.198,0 0.468,-0.037 0.812,-0.11l0,1.36c-0.448,0.125 -0.88,0.187 -1.297,0.187c-0.75,0 -1.317,-0.229 -1.703,-0.687c-0.385,-0.459 -0.578,-1.104 -0.578,-1.938l0,-6.109l-1.797,0l0,-1.313l1.797,0l0,-2.39l1.688,0Zm7.891,12.437c-1.334,0 -2.422,-0.437 -3.266,-1.312c-0.833,-0.886 -1.25,-2.063 -1.25,-3.531l0,-0.313c0,-0.979 0.188,-1.849 0.563,-2.609c0.375,-0.771 0.895,-1.37 1.562,-1.797c0.677,-0.438 1.406,-0.656 2.188,-0.656c1.281,0 2.276,0.421 2.984,1.265c0.708,0.844 1.062,2.052 1.062,3.625l0,0.688l-6.671,0c0.02,0.979 0.302,1.771 0.843,2.375c0.552,0.593 1.245,0.89 2.078,0.89c0.594,0 1.099,-0.119 1.516,-0.359c0.417,-0.25 0.776,-0.573 1.078,-0.969l1.031,0.797c-0.822,1.271 -2.062,1.906 -3.718,1.906Zm-0.203,-8.843c-0.677,0 -1.25,0.25 -1.719,0.75c-0.458,0.489 -0.74,1.182 -0.844,2.078l4.938,0l0,-0.125c-0.052,-0.854 -0.287,-1.516 -0.704,-1.985c-0.406,-0.479 -0.963,-0.718 -1.671,-0.718Zm10.774,0.312c-0.26,-0.042 -0.542,-0.062 -0.844,-0.062c-1.104,0 -1.854,0.468 -2.25,1.406l0,7l-1.672,0l0,-9.86l1.641,0l0.016,1.141c0.552,-0.875 1.338,-1.312 2.359,-1.312c0.323,0 0.573,0.041 0.75,0.125l0,1.562Zm3.141,-1.516l0.047,1.235c0.75,-0.938 1.734,-1.406 2.953,-1.406c2.083,0 3.135,1.171 3.156,3.515l0,6.516l-1.687,0l0,-6.516c-0.011,-0.719 -0.177,-1.245 -0.5,-1.578c-0.313,-0.344 -0.808,-0.516 -1.485,-0.516c-0.541,0 -1.02,0.146 -1.437,0.438c-0.406,0.292 -0.729,0.677 -0.969,1.156l0,7.016l-1.672,0l0,-9.86l1.594,0Zm8.247,4.844c0,-0.969 0.187,-1.838 0.562,-2.609c0.386,-0.771 0.917,-1.365 1.594,-1.781c0.677,-0.417 1.448,-0.625 2.313,-0.625c1.343,0 2.427,0.463 3.25,1.39c0.833,0.927 1.25,2.162 1.25,3.703l0,0.125c0,0.959 -0.183,1.818 -0.547,2.578c-0.365,0.761 -0.891,1.355 -1.578,1.782c-0.677,0.427 -1.464,0.64 -2.36,0.64c-1.333,0 -2.416,-0.463 -3.25,-1.39c-0.823,-0.938 -1.234,-2.172 -1.234,-3.703l0,-0.11Zm1.687,0.203c0,1.094 0.256,1.974 0.766,2.641c0.51,0.656 1.188,0.984 2.031,0.984c0.865,0 1.547,-0.333 2.047,-1c0.5,-0.677 0.75,-1.619 0.75,-2.828c0,-1.083 -0.255,-1.958 -0.765,-2.625c-0.511,-0.677 -1.193,-1.015 -2.047,-1.015c-0.834,0 -1.506,0.333 -2.016,1c-0.51,0.656 -0.766,1.604 -0.766,2.843Zm8.984,-0.203c0,-1.51 0.359,-2.724 1.078,-3.64c0.719,-0.917 1.656,-1.375 2.813,-1.375c1.156,0 2.073,0.39 2.75,1.171l0,-5.14l1.687,0l0,14l-1.547,0l-0.093,-1.063c-0.667,0.834 -1.605,1.25 -2.813,1.25c-1.135,0 -2.068,-0.468 -2.797,-1.406c-0.719,-0.937 -1.078,-2.156 -1.078,-3.656l0,-0.141Zm1.688,0.203c0,1.115 0.229,1.99 0.687,2.625c0.469,0.625 1.109,0.938 1.922,0.938c1.073,0 1.854,-0.479 2.344,-1.438l0,-4.531c-0.511,-0.927 -1.287,-1.391 -2.328,-1.391c-0.823,0 -1.469,0.318 -1.938,0.954c-0.458,0.635 -0.687,1.583 -0.687,2.843Zm13.333,5c-1.333,0 -2.421,-0.437 -3.265,-1.312c-0.833,-0.886 -1.25,-2.063 -1.25,-3.531l0,-0.313c0,-0.979 0.187,-1.849 0.562,-2.609c0.375,-0.771 0.896,-1.37 1.563,-1.797c0.677,-0.438 1.406,-0.656 2.187,-0.656c1.282,0 2.276,0.421 2.985,1.265c0.708,0.844 1.062,2.052 1.062,3.625l0,0.688l-6.672,0c0.021,0.979 0.302,1.771 0.844,2.375c0.552,0.593 1.245,0.89 2.078,0.89c0.594,0 1.099,-0.119 1.516,-0.359c0.417,-0.25 0.776,-0.573 1.078,-0.969l1.031,0.797c-0.823,1.271 -2.062,1.906 -3.719,1.906Zm-0.203,-8.843c-0.677,0 -1.25,0.25 -1.718,0.75c-0.459,0.489 -0.74,1.182 -0.844,2.078l4.937,0l0,-0.125c-0.052,-0.854 -0.286,-1.516 -0.703,-1.985c-0.406,-0.479 -0.963,-0.718 -1.672,-0.718Zm6.275,8.656l0,-13.266l3.734,0c1.156,0 2.177,0.255 3.063,0.766c0.885,0.51 1.567,1.239 2.047,2.187c0.489,0.938 0.734,2.016 0.734,3.235l0,0.843c0,1.25 -0.24,2.349 -0.719,3.297c-0.479,0.938 -1.167,1.662 -2.062,2.172c-0.896,0.5 -1.943,0.755 -3.141,0.766l-3.656,0Zm1.734,-11.828l0,10.39l1.844,0c1.354,0 2.406,-0.416 3.156,-1.25c0.75,-0.833 1.125,-2.026 1.125,-3.578l0,-0.781c0,-1.5 -0.354,-2.667 -1.062,-3.5c-0.709,-0.844 -1.714,-1.271 -3.016,-1.281l-2.047,0Zm14.312,12.015c-1.333,0 -2.422,-0.437 -3.265,-1.312c-0.834,-0.886 -1.25,-2.063 -1.25,-3.531l0,-0.313c0,-0.979 0.187,-1.849 0.562,-2.609c0.375,-0.771 0.896,-1.37 1.563,-1.797c0.677,-0.438 1.406,-0.656 2.187,-0.656c1.281,0 2.276,0.421 2.985,1.265c0.708,0.844 1.062,2.052 1.062,3.625l0,0.688l-6.672,0c0.021,0.979 0.302,1.771 0.844,2.375c0.552,0.593 1.245,0.89 2.078,0.89c0.594,0 1.099,-0.119 1.516,-0.359c0.416,-0.25 0.776,-0.573 1.078,-0.969l1.031,0.797c-0.823,1.271 -2.062,1.906 -3.719,1.906Zm-0.203,-8.843c-0.677,0 -1.25,0.25 -1.719,0.75c-0.458,0.489 -0.739,1.182 -0.843,2.078l4.937,0l0,-0.125c-0.052,-0.854 -0.286,-1.516 -0.703,-1.985c-0.406,-0.479 -0.963,-0.718 -1.672,-0.718Zm7.837,8.656l-1.687,0l0,-14l1.687,0l0,14Zm4.981,-12.25l0,2.39l1.843,0l0,1.313l-1.843,0l0,6.109c0,0.396 0.078,0.693 0.234,0.891c0.167,0.198 0.448,0.297 0.844,0.297c0.198,0 0.469,-0.037 0.812,-0.11l0,1.36c-0.448,0.125 -0.88,0.187 -1.297,0.187c-0.75,0 -1.317,-0.229 -1.703,-0.687c-0.385,-0.459 -0.578,-1.104 -0.578,-1.938l0,-6.109l-1.797,0l0,-1.313l1.797,0l0,-2.39l1.688,0Zm9.891,12.25c-0.094,-0.198 -0.172,-0.542 -0.235,-1.031c-0.781,0.812 -1.718,1.218 -2.812,1.218c-0.969,0 -1.766,-0.276 -2.391,-0.828c-0.614,-0.552 -0.922,-1.25 -0.922,-2.094c0,-1.02 0.386,-1.812 1.157,-2.375c0.781,-0.572 1.88,-0.859 3.297,-0.859l1.64,0l0,-0.781c0,-0.594 -0.177,-1.063 -0.531,-1.406c-0.344,-0.355 -0.859,-0.532 -1.547,-0.532c-0.604,0 -1.109,0.157 -1.516,0.469c-0.406,0.302 -0.609,0.667 -0.609,1.094l-1.703,0c0,-0.49 0.172,-0.964 0.516,-1.422c0.354,-0.458 0.828,-0.818 1.421,-1.078c0.605,-0.271 1.266,-0.406 1.985,-0.406c1.135,0 2.026,0.286 2.672,0.859c0.646,0.562 0.979,1.338 1,2.328l0,4.531c0,0.907 0.114,1.631 0.343,2.172l0,0.141l-1.765,0Zm-2.797,-1.281c0.531,0 1.031,-0.136 1.5,-0.407c0.479,-0.281 0.823,-0.64 1.031,-1.078l0,-2.015l-1.312,0c-2.073,0 -3.11,0.604 -3.11,1.812c0,0.531 0.177,0.948 0.532,1.25c0.354,0.292 0.807,0.438 1.359,0.438Z" style="fill-rule:nonzero;"/><rect x="459.311" y="27.295" width="14.425" height="91.087" style="fill:#cfe2f3;"/><rect x="459.311" y="27.295" width="14.425" height="91.087" style="fill:none;stroke:#000;stroke-width:1px;"/><rect x="254.172" y="27.295" width="14.425" height="91.087" style="fill:#cfe2f3;"/><rect x="254.172" y="27.295" width="14.425" height="91.087" style="fill:none;stroke:#000;stroke-width:1px;"/><defs><linearGradient id="_Linear1" x1="0" y1="0" x2="1" y2="0" gradientUnits="userSpaceOnUse" gradientTransform="matrix(636.031,0,0,636.031,6.48425,86.2244)"><stop offset="0" style="stop-color:#db4437;stop-opacity:1"/><stop offset="1" style="stop-color:#6aa84f;stop-opacity:1"/></linearGradient></defs></svg>